<svg width="66" height="66" viewBox="0 0 66 66" fill="none" xmlns="http://www.w3.org/2000/svg">
<mask id="mask0_248_87" style="mask-type:luminance" maskUnits="userSpaceOnUse" x="0" y="0" width="66" height="66">
<path d="M0.0493164 0.583252H65.0493V65.5833H0.0493164V0.583252Z" fill="white"/>
<path fill-rule="evenodd" clip-rule="evenodd" d="M46.2993 54.3333C48.9515 54.3333 51.495 53.2797 53.3704 51.4043C55.2458 49.529 56.2993 46.9854 56.2993 44.3333C56.2993 41.6811 55.2458 39.1375 53.3704 37.2622C51.495 35.3868 48.9515 34.3333 46.2993 34.3333C43.6472 34.3333 41.1036 35.3868 39.2283 37.2622C37.3529 39.1375 36.2993 41.6811 36.2993 44.3333C36.2993 46.9854 37.3529 49.529 39.2283 51.4043C41.1036 53.2797 43.6472 54.3333 46.2993 54.3333ZM46.2993 36.8333C48.2884 36.8333 50.1961 37.6234 51.6026 39.03C53.0091 40.4365 53.7993 42.3441 53.7993 44.3333C53.7993 46.3224 53.0091 48.23 51.6026 49.6366C50.1961 51.0431 48.2884 51.8333 46.2993 51.8333C44.3102 51.8333 42.4025 51.0431 40.996 49.6366C39.5895 48.23 38.7993 46.3224 38.7993 44.3333C38.7993 42.3441 39.5895 40.4365 40.996 39.03C42.4025 37.6234 44.3102 36.8333 46.2993 36.8333ZM18.7993 54.3333C21.4515 54.3333 23.995 53.2797 25.8704 51.4043C27.7458 49.529 28.7993 46.9854 28.7993 44.3333C28.7993 41.6811 27.7458 39.1375 25.8704 37.2622C23.995 35.3868 21.4515 34.3333 18.7993 34.3333C16.1472 34.3333 13.6036 35.3868 11.7282 37.2622C9.85288 39.1375 8.79932 41.6811 8.79932 44.3333C8.79932 46.9854 9.85288 49.529 11.7282 51.4043C13.6036 53.2797 16.1472 54.3333 18.7993 54.3333ZM18.7993 36.8333C20.7884 36.8333 22.6961 37.6234 24.1026 39.03C25.5091 40.4365 26.2993 42.3441 26.2993 44.3333C26.2993 46.3224 25.5091 48.23 24.1026 49.6366C22.6961 51.0431 20.7884 51.8333 18.7993 51.8333C16.8102 51.8333 14.9025 51.0431 13.496 49.6366C12.0895 48.23 11.2993 46.3224 11.2993 44.3333C11.2993 42.3441 12.0895 40.4365 13.496 39.03C14.9025 37.6234 16.8102 36.8333 18.7993 36.8333Z" fill="black"/>
<path d="M20.0498 20.5833C19.7183 20.5833 19.4003 20.4516 19.1659 20.2171C18.9315 19.9827 18.7998 19.6648 18.7998 19.3333C18.7998 19.0017 18.9315 18.6838 19.1659 18.4494C19.4003 18.2149 19.7183 18.0833 20.0498 18.0833H30.0498C30.3813 18.0833 30.6993 18.2149 30.9337 18.4494C31.1681 18.6838 31.2998 19.0017 31.2998 19.3333C31.2998 19.6648 31.1681 19.9827 30.9337 20.2171C30.6993 20.4516 30.3813 20.5833 30.0498 20.5833H20.0498Z" fill="black"/>
<path fill-rule="evenodd" clip-rule="evenodd" d="M33.7372 43.9408L33.6497 43.6808L43.6097 27.7933C43.7273 27.6041 43.7923 27.3869 43.7978 27.1643C43.8033 26.9416 43.7492 26.7215 43.6411 26.5267C43.533 26.3319 43.3749 26.1696 43.183 26.0565C42.9911 25.9433 42.7725 25.8835 42.5497 25.8833H27.7747L25.4822 18.9433C25.3781 18.6283 25.1532 18.3676 24.8569 18.2185C24.5606 18.0694 24.2172 18.0442 23.9022 18.1483C23.5873 18.2524 23.3266 18.4773 23.1775 18.7736C23.0284 19.0699 23.0031 19.4133 23.1072 19.7283L25.7872 27.8408L17.6872 43.7683C17.5908 43.9586 17.5446 44.1706 17.5533 44.3838C17.5619 44.5971 17.625 44.8045 17.7365 44.9865C17.848 45.1685 18.0043 45.3188 18.1904 45.4233C18.3765 45.5278 18.5863 45.5828 18.7997 45.5833H32.5497C32.7476 45.5834 32.9427 45.5365 33.1189 45.4465C33.2951 45.3565 33.4475 45.226 33.5634 45.0656C33.6794 44.9053 33.7556 44.7197 33.7858 44.5241C33.816 44.3286 33.7994 44.1286 33.7372 43.9408ZM20.8372 43.0833H30.8197L26.8897 31.1833L20.8372 43.0833ZM28.5972 28.3808L32.6322 40.5983L40.2897 28.3808H28.5972Z" fill="black"/>
<path d="M41.4097 15.5808C41.244 15.5991 41.0763 15.5842 40.9165 15.5368C40.7567 15.4894 40.6079 15.4105 40.4791 15.3047C40.3502 15.199 40.2438 15.0685 40.1661 14.921C40.0884 14.7735 40.0409 14.612 40.0266 14.4459C40.0123 14.2798 40.0313 14.1125 40.0826 13.9539C40.1338 13.7953 40.2163 13.6485 40.3252 13.5223C40.434 13.396 40.567 13.2928 40.7163 13.2187C40.8656 13.1446 41.0283 13.1011 41.1947 13.0908C50.3322 12.3008 55.0497 13.2433 55.0497 16.8333C55.0497 19.9958 52.7797 21.6983 48.8422 21.8333C48.678 21.8389 48.5144 21.812 48.3606 21.7544C48.2068 21.6967 48.0659 21.6093 47.9458 21.4972C47.7035 21.2708 47.5609 20.9573 47.5497 20.6258C47.5384 20.2943 47.6593 19.9718 47.8857 19.7294C48.1122 19.487 48.4256 19.3445 48.7572 19.3333C51.4872 19.2408 52.5497 18.4433 52.5497 16.8333C52.5497 15.6483 48.9372 14.9258 41.4072 15.5783" fill="black"/>
<path d="M42.5318 14.1283L47.5318 44.1283C47.8068 45.7708 45.3393 46.1833 45.0668 44.5383L40.0668 14.5383C39.7918 12.8958 42.2593 12.4833 42.5318 14.1283Z" fill="black"/>
</mask>
<g mask="url(#mask0_248_87)">
<path d="M32.5493 65.5833C50.4986 65.5833 65.0493 51.0325 65.0493 33.0833C65.0493 15.134 50.4986 0.583252 32.5493 0.583252C14.6001 0.583252 0.0493164 15.134 0.0493164 33.0833C0.0493164 51.0325 14.6001 65.5833 32.5493 65.5833Z" fill="#1A9FAB"/>
</g>
</svg>
