<svg width="66" height="66" viewBox="0 0 66 66" fill="none" xmlns="http://www.w3.org/2000/svg">
<circle cx="32.5493" cy="33.0833" r="32.5" fill="#1A9FAB"/>
<path d="M18.2109 47.4276V19.7091C18.2109 18.2388 18.7786 16.8287 19.789 15.7891C20.7993 14.7494 22.1697 14.1653 23.5986 14.1653H42.4556C43.8845 14.1653 45.2549 14.7494 46.2653 15.7891C47.2757 16.8287 47.8433 18.2388 47.8433 19.7091V45.0022C47.8433 45.6455 47.595 46.2624 47.1529 46.7172C46.7109 47.1721 46.1113 47.4276 45.4862 47.4276H20.9048C20.9048 48.1627 21.1886 48.8678 21.6938 49.3876C22.199 49.9074 22.8842 50.1995 23.5986 50.1995H46.4964C46.8536 50.1995 47.1962 50.3455 47.4488 50.6054C47.7014 50.8653 47.8433 51.2178 47.8433 51.5854C47.8433 51.953 47.7014 52.3055 47.4488 52.5654C47.1962 52.8253 46.8536 52.9713 46.4964 52.9713H23.5986C22.1697 52.9713 20.7993 52.3872 19.789 51.3476C18.7786 50.3079 18.2109 48.8979 18.2109 47.4276ZM25.9558 19.7091C25.3306 19.7091 24.7311 19.9646 24.289 20.4194C23.847 20.8743 23.5986 21.4912 23.5986 22.1344V24.2133C23.5986 25.5521 24.6546 26.6387 25.9558 26.6387H40.0985C40.7236 26.6387 41.3232 26.3832 41.7652 25.9283C42.2073 25.4735 42.4556 24.8566 42.4556 24.2133V22.1344C42.4556 21.4912 42.2073 20.8743 41.7652 20.4194C41.3232 19.9646 40.7236 19.7091 40.0985 19.7091H25.9558Z" fill="white"/>
</svg>
