<svg width="66" height="66" viewBox="0 0 66 66" fill="none" xmlns="http://www.w3.org/2000/svg">
<path d="M32.5493 0.583252C14.6743 0.583252 0.0493164 15.2083 0.0493164 33.0833C0.0493164 50.9583 14.6743 65.5833 32.5493 65.5833C50.4243 65.5833 65.0493 50.9583 65.0493 33.0833C65.0493 15.2083 50.4243 0.583252 32.5493 0.583252ZM24.7493 49.9833C24.0343 49.9833 23.0593 49.7233 22.1493 49.3333L20.2968 53.8833L16.5918 52.5833L17.1118 51.3158C21.0118 41.5008 25.4968 30.3208 42.2993 26.5833C42.2993 26.5833 22.7993 26.5833 16.4618 44.6208C16.4618 44.6208 13.0493 41.2083 13.0493 37.3083C13.0493 33.4082 16.9493 25.1208 26.6993 23.1708C29.4618 22.6183 32.5493 22.1958 35.6043 21.7083C43.2743 20.6683 50.6518 19.6283 52.0493 16.8333C52.0493 16.8333 46.1993 49.9833 24.7493 49.9833Z" fill="#1A9FAB"/>
</svg>
