<svg width="69" height="66" viewBox="0 0 69 66" fill="none" xmlns="http://www.w3.org/2000/svg">
<path d="M34.5498 65.5833C25.464 65.5833 16.7504 62.1592 10.3259 56.0642C3.90128 49.9693 0.291992 41.7028 0.291992 33.0833C0.291992 24.4637 3.90128 16.1972 10.3259 10.1023C16.7504 4.00735 25.464 0.583252 34.5498 0.583252C43.6355 0.583252 52.3491 4.00735 58.7737 10.1023C65.1982 16.1972 68.8075 24.4637 68.8075 33.0833C68.8075 41.7028 65.1982 49.9693 58.7737 56.0642C52.3491 62.1592 43.6355 65.5833 34.5498 65.5833ZM38.1768 32.4942C40.5502 31.6841 42.5463 30.1056 43.8135 28.0366C45.0807 25.9677 45.5379 23.5408 45.1045 21.1835C44.6712 18.8262 43.375 16.6895 41.4443 15.1497C39.5136 13.6098 37.0721 12.7656 34.5498 12.7656C32.0274 12.7656 29.586 13.6098 27.6552 15.1497C25.7245 16.6895 24.4284 18.8262 23.995 21.1835C23.5616 23.5408 24.0188 25.9677 25.286 28.0366C26.5533 30.1056 28.5493 31.6841 30.9227 32.4942C23.72 34.1436 17.4209 40.2942 17.4209 45.2708C17.4209 46.8754 18.0418 49.3129 21.7031 49.3129H47.3964C51.0577 49.3129 51.6786 46.8754 51.6786 45.2708C51.6786 40.2983 45.3838 34.1395 38.1768 32.4942Z" fill="#1A9FAB"/>
</svg>
