<svg width="66" height="66" viewBox="0 0 66 66" fill="none" xmlns="http://www.w3.org/2000/svg">
<path d="M32.5493 65.5833C50.4991 65.5833 65.0493 51.033 65.0493 33.0833C65.0493 15.1335 50.4991 0.583252 32.5493 0.583252C14.5996 0.583252 0.0493164 15.1335 0.0493164 33.0833C0.0493164 51.033 14.5996 65.5833 32.5493 65.5833ZM19.5493 40.9938L16.7511 39.957C15.6612 39.554 14.721 38.8268 14.0568 37.8733C13.3927 36.9198 13.0366 35.7857 13.0363 34.6238V31.5363C13.0355 30.3728 13.3915 29.237 14.0563 28.2822C14.7211 27.3274 15.6628 26.5994 16.7543 26.1965L41.1326 17.1778C41.9924 16.8598 42.9163 16.7544 43.8256 16.8705C44.7349 16.9866 45.6027 17.3207 46.3551 17.8445C47.1074 18.3683 47.7219 19.0662 48.1464 19.8787C48.5709 20.6912 48.7926 21.5943 48.7928 22.511V43.636C48.7932 44.553 48.5718 45.4565 48.1475 46.2694C47.7233 47.0823 47.1088 47.7807 46.3564 48.3048C45.604 48.829 44.736 49.1634 43.8264 49.2797C42.9168 49.396 41.9926 49.2906 41.1326 48.9725L36.4721 47.2468C36.0801 49.3368 34.922 51.2051 33.2247 52.486C31.5273 53.7669 29.4129 54.368 27.2955 54.1716C25.1782 53.9752 23.2104 52.9954 21.7776 51.4242C20.3448 49.853 19.5502 47.8034 19.5493 45.677V40.9938ZM31.7368 45.5015V45.677C31.7368 46.6467 31.3516 47.5767 30.6659 48.2624C29.9802 48.9481 29.0503 49.3333 28.0806 49.3333C27.1109 49.3333 26.1809 48.9481 25.4952 48.2624C24.8095 47.5767 24.4243 46.6467 24.4243 45.677V42.7943L31.7368 45.5015Z" fill="#1A9FAB"/>
</svg>
