<svg width="24" height="23" viewBox="0 0 24 23" fill="none" xmlns="http://www.w3.org/2000/svg">
<path d="M2.08594 10.1389C1.25751 10.1389 0.585938 10.8105 0.585938 11.6389C0.585938 12.4673 1.25751 13.1389 2.08594 13.1389V10.1389ZM23.0169 12.6996C23.6027 12.1138 23.6027 11.164 23.0169 10.5783L13.471 1.03231C12.8852 0.446527 11.9355 0.446527 11.3497 1.03231C10.7639 1.6181 10.7639 2.56785 11.3497 3.15364L19.835 11.6389L11.3497 20.1242C10.7639 20.71 10.7639 21.6597 11.3497 22.2455C11.9355 22.8313 12.8852 22.8313 13.471 22.2455L23.0169 12.6996ZM2.08594 13.1389H21.9563V10.1389H2.08594V13.1389Z" fill="white"/>
</svg>
