<svg width="198" height="43" viewBox="0 0 198 43" fill="none" xmlns="http://www.w3.org/2000/svg">
<path d="M21.6673 0.879395C10.1618 0.879395 0.834961 9.94716 0.834961 21.133C0.834961 32.3189 10.1618 41.3867 21.6673 41.3867C33.1727 41.3867 42.4996 32.3189 42.4996 21.133C42.4996 9.94716 33.1727 0.879395 21.6673 0.879395ZM35.4172 26.6778C35.3483 28.1092 35.1144 29.0866 34.7745 29.9417C34.4202 30.8264 33.9471 31.5763 33.178 32.324C32.4097 33.0725 31.6391 33.5325 30.7292 33.8762C29.8488 34.2088 28.8428 34.4355 27.3697 34.501C25.8943 34.5665 25.4242 34.582 21.6665 34.582C17.9088 34.582 17.4387 34.5658 15.9626 34.501C14.4903 34.4355 13.4842 34.2088 12.6046 33.8762C11.6955 33.5325 10.9233 33.0718 10.155 32.324C9.3859 31.5763 8.91278 30.8264 8.55927 29.9417C8.21711 29.0866 7.98396 28.1092 7.91658 26.6778C7.84997 25.2434 7.83331 24.7863 7.83331 21.1338C7.83331 17.4812 7.85073 17.0227 7.91658 15.5876C7.9832 14.1561 8.21635 13.1788 8.55927 12.3236C8.91354 11.439 9.38665 10.689 10.1558 9.94128C10.9249 9.19354 11.6962 8.73357 12.6061 8.39061C13.4857 8.05795 14.491 7.83128 15.9641 7.76578C17.4395 7.70028 17.9111 7.68482 21.668 7.68482H21.6635C25.4219 7.68482 25.8913 7.70101 27.3674 7.76578C28.8405 7.83128 29.8458 8.05795 30.7277 8.39061C31.6383 8.73357 32.4082 9.19354 33.1773 9.94128C33.9471 10.689 34.4195 11.439 34.7738 12.3236C35.1136 13.1788 35.3476 14.1561 35.4164 15.5876C35.4831 17.022 35.4997 17.4805 35.4997 21.133C35.4997 24.7856 35.4823 25.2434 35.4164 26.6778H35.4172Z" fill="white"/>
<path d="M32.452 13.2001C32.2007 12.5723 31.9009 12.1241 31.4164 11.6531C30.9327 11.1821 30.4725 10.8906 29.8268 10.647C29.3393 10.463 28.6073 10.2437 27.2583 10.1841C25.7996 10.1193 25.3621 10.1068 21.668 10.1068C21.2062 10.1068 20.7951 10.1068 20.4272 10.1068V10.1031C17.8489 10.1061 17.3546 10.123 16.0784 10.179C14.7294 10.2393 13.9974 10.4579 13.5099 10.6426C12.8642 10.8869 12.4032 11.1784 11.9187 11.6494C11.4342 12.1204 11.1345 12.5686 10.8831 13.1964C10.6939 13.6704 10.4683 14.382 10.407 15.6935C10.3404 17.111 10.3275 17.5349 10.3275 21.1264C10.3275 24.7179 10.3411 25.144 10.407 26.5614C10.4683 27.8729 10.6939 28.5846 10.8831 29.0578C11.1345 29.6856 11.4342 30.1331 11.9187 30.6033C12.4032 31.0743 12.8642 31.3658 13.5099 31.6094C13.9981 31.7934 14.7302 32.0127 16.0784 32.073C17.5363 32.1378 17.9746 32.1518 21.6687 32.1518C25.3628 32.1518 25.8003 32.1378 27.2591 32.073C28.608 32.0134 29.3408 31.7948 29.8275 31.6094C30.4732 31.3658 30.9327 31.0743 31.4172 30.6033C31.9017 30.1331 32.2014 29.6863 32.4528 29.0585C32.642 28.5853 32.8676 27.8737 32.9289 26.5622C32.9955 25.1447 33.0099 24.7186 33.0099 21.1293C33.0099 17.54 32.9955 17.1139 32.9289 15.6965C32.8676 14.385 32.642 13.6733 32.4528 13.2001H32.452ZM21.6687 28.0385C17.7452 28.0385 14.5644 24.9475 14.5644 21.133C14.5644 17.3185 17.7452 14.226 21.6687 14.226C25.5922 14.226 28.7723 17.3185 28.7723 21.133C28.7723 24.9475 25.5922 28.0385 21.6687 28.0385ZM29.0531 15.5677C28.1364 15.5677 27.3931 14.8449 27.3931 13.9537C27.3931 13.0624 28.1364 12.3405 29.0531 12.3405C29.9698 12.3405 30.7132 13.0632 30.7132 13.9537C30.7132 14.8442 29.9698 15.5677 29.0531 15.5677Z" fill="white"/>
<path d="M26.249 21.6493C26.5426 19.1896 24.7297 16.9643 22.1998 16.6788C19.6699 16.3933 17.381 18.1559 17.0874 20.6155C16.7937 23.0752 18.6066 25.3005 21.1366 25.586C23.6665 25.8714 25.9554 24.1089 26.249 21.6493Z" fill="white"/>
<path d="M73.3225 0.879395C61.8874 0.879395 52.5318 9.97513 52.5318 21.0925C52.5318 31.0979 60.0161 39.3856 69.8918 41.1033L69.9955 41.0209V26.833H64.798V21.1735H69.9955V16.7268C69.9955 11.6737 73.3217 8.84396 78.1036 8.84396C79.5593 8.84396 81.2224 9.04635 82.6773 9.248V14.4027H79.9749C77.4799 14.4027 76.8561 15.6155 76.8561 17.2324V21.1742H82.3655L81.4298 26.8338H76.8561V41.0842C76.8516 41.0849 76.847 41.0857 76.8425 41.0864C76.8425 41.0864 76.8425 41.0871 76.8425 41.0879C86.6735 39.3348 94.1124 31.0678 94.1124 21.0933C94.1132 9.97513 84.7575 0.879395 73.3225 0.879395Z" fill="white"/>
<path d="M124.978 0.879395C113.473 0.879395 104.146 9.94716 104.146 21.133C104.146 32.3189 113.473 41.3867 124.978 41.3867C136.484 41.3867 145.81 32.3189 145.81 21.133C145.81 9.94716 136.484 0.879395 124.978 0.879395ZM135.456 16.1704C135.07 17.4208 135.161 18.7654 134.778 20.0195C133.71 24.5707 130.325 28.628 125.796 30.2803C121.404 31.9612 116.32 31.3901 112.206 29.2389C114.781 28.9548 117.562 28.6972 119.57 26.9081C118.519 26.5813 117.371 26.4187 116.464 25.7688C115.699 25.2007 115.239 24.3521 114.738 23.5749C115.333 23.4381 115.931 23.3137 116.532 23.193C115.582 22.7095 114.614 22.1972 113.886 21.4171C113.184 20.5685 113.033 19.455 112.808 18.4232C113.466 18.5049 114.127 18.6094 114.789 18.7073C114.148 17.7344 113.311 16.8174 113.096 15.645C112.801 14.4306 113.244 13.2259 113.513 12.0542C116.347 14.8163 120.067 17.0624 124.177 17.1956C124.224 15.6582 124.523 14.0259 125.615 12.841C126.642 11.6229 128.284 11.0585 129.866 11.0062C131.347 11.0327 132.67 11.7672 133.886 12.5179C134.823 12.1911 135.766 11.8842 136.733 11.6494C136.29 12.4524 135.783 13.2163 135.266 13.9736C136.088 13.7778 136.911 13.5821 137.751 13.4614C137.069 14.4306 136.206 15.2571 135.457 16.1712L135.456 16.1704Z" fill="white"/>
<path d="M177.082 2.49268C165.576 2.49268 156.249 11.5604 156.249 22.7463C156.249 33.9322 165.576 42.9999 177.082 42.9999C188.587 42.9999 197.914 33.9322 197.914 22.7463C197.914 11.5604 188.587 2.49268 177.082 2.49268ZM190.571 26.5417C190.465 28.6288 189.074 30.5379 187.202 31.5072C185.972 32.0827 184.57 32.1718 183.229 32.1828C179.154 32.1718 175.077 32.1718 170.998 32.1791C169.374 32.1791 167.656 32.0341 166.277 31.1134C164.424 30.0294 163.534 27.8414 163.576 25.7991C163.579 23.5632 163.507 21.3274 163.56 19.0923C163.572 16.771 165.23 14.6507 167.369 13.7256C168.507 13.2208 169.79 13.3282 171.005 13.3098C175.467 13.3805 179.929 13.3319 184.387 13.3694C186.568 13.34 188.829 14.4461 189.803 16.3964C190.643 17.9044 190.567 19.6685 190.602 21.3318C190.605 23.0665 190.663 24.8077 190.571 26.5424V26.5417Z" fill="white"/>
<path d="M174.819 26.9801C177.314 25.5317 179.823 24.1128 182.257 22.5717C179.69 21.361 177.364 19.7382 174.793 18.5312C174.808 21.3463 174.816 24.165 174.819 26.9801Z" fill="white"/>
</svg>
